<svg width="360" height="79.07066853841145" viewBox="0 0 360 79.07066853841145" class="css-1j8o68f">
    <defs id="SvgjsDefs1001"></defs>
    <g id="SvgjsG1007" featurekey="symbolFeature-0"
       transform="matrix(1.3333333730697632,0,0,1.3333333730697632,-6.666666666666666,-27.132001241048176)" fill="#3986d6">
        <path xmlns="http://www.w3.org/2000/svg"
              d="M7,46.5c-1.104,0-2,0.896-2,2v3c0,1.104,0.896,2,2,2s2-0.896,2-2v-3C9,47.396,8.104,46.5,7,46.5z"></path>
        <path xmlns="http://www.w3.org/2000/svg"
              d="M12.733,41.103c-1.104,0-2,0.896-2,2v13.795c0,1.104,0.896,2,2,2s2-0.896,2-2V43.103  C14.733,41.998,13.838,41.103,12.733,41.103z"></path>
        <path xmlns="http://www.w3.org/2000/svg"
              d="M18.467,44.167c-1.104,0-2,0.896-2,2v7.667c0,1.104,0.896,2,2,2s2-0.896,2-2v-7.667  C20.467,45.062,19.571,44.167,18.467,44.167z"></path>
        <path xmlns="http://www.w3.org/2000/svg"
              d="M24.2,35.875c-1.104,0-2,0.896-2,2v24.25c0,1.104,0.896,2,2,2s2-0.896,2-2v-24.25C26.2,36.771,25.305,35.875,24.2,35.875z"></path>
        <path xmlns="http://www.w3.org/2000/svg"
              d="M29.933,28.333c-1.104,0-2,0.896-2,2v39.333c0,1.104,0.896,2,2,2s2-0.896,2-2V30.333  C31.933,29.229,31.038,28.333,29.933,28.333z"></path>
        <path xmlns="http://www.w3.org/2000/svg"
              d="M35.667,36.833c-1.104,0-2,0.896-2,2v22.333c0,1.104,0.896,2,2,2s2-0.896,2-2V38.833  C37.667,37.729,36.771,36.833,35.667,36.833z"></path>
        <path xmlns="http://www.w3.org/2000/svg"
              d="M41.538,29.335c-1.073-0.038-2.006,0.882-2.013,1.987l-0.249,37.33c-0.007,1.104,0.882,2.006,1.987,2.013  c0.004,0,0.009,0,0.014,0c1.098,0,1.992-0.887,2-1.987l0.249-37.33C43.532,30.244,42.642,29.342,41.538,29.335z"></path>
        <path xmlns="http://www.w3.org/2000/svg"
              d="M47.133,20.349c-1.104,0-2,0.896-2,2v55.303c0,1.104,0.896,2,2,2s2-0.896,2-2V22.349  C49.133,21.244,48.238,20.349,47.133,20.349z"></path>
        <path xmlns="http://www.w3.org/2000/svg"
              d="M52.867,26.75c-1.104,0-2,0.896-2,2v42.5c0,1.104,0.896,2,2,2s2-0.896,2-2v-42.5C54.867,27.646,53.971,26.75,52.867,26.75z"></path>
        <path xmlns="http://www.w3.org/2000/svg"
              d="M58.6,36.833c-1.104,0-2,0.896-2,2v22.333c0,1.104,0.896,2,2,2s2-0.896,2-2V38.833C60.6,37.729,59.705,36.833,58.6,36.833z"></path>
        <path xmlns="http://www.w3.org/2000/svg"
              d="M64.333,30.5c-1.104,0-2,0.896-2,2v35c0,1.104,0.896,2,2,2s2-0.896,2-2v-35C66.333,31.396,65.438,30.5,64.333,30.5z"></path>
        <path xmlns="http://www.w3.org/2000/svg"
              d="M70.067,39.132c-1.104,0-2,0.896-2,2v17.735c0,1.104,0.896,2,2,2s2-0.896,2-2V41.132  C72.067,40.028,71.171,39.132,70.067,39.132z"></path>
        <path xmlns="http://www.w3.org/2000/svg"
              d="M75.8,43c-1.104,0-2,0.896-2,2v10c0,1.104,0.896,2,2,2s2-0.896,2-2V45C77.8,43.896,76.904,43,75.8,43z"></path>
        <path xmlns="http://www.w3.org/2000/svg"
              d="M81.533,41.235c-1.104,0-2,0.896-2,2v13.53c0,1.104,0.896,2,2,2s2-0.896,2-2v-13.53  C83.533,42.13,82.638,41.235,81.533,41.235z"></path>
        <path xmlns="http://www.w3.org/2000/svg"
              d="M87.267,45.49c-1.104,0-2,0.896-2,2v5.021c0,1.104,0.896,2,2,2s2-0.896,2-2V47.49C89.267,46.385,88.371,45.49,87.267,45.49z  "></path>
        <path xmlns="http://www.w3.org/2000/svg"
              d="M93,46.917c-1.104,0-2,0.896-2,2v2.167c0,1.104,0.896,2,2,2s2-0.896,2-2v-2.167C95,47.812,94.104,46.917,93,46.917z"></path>
    </g>
    <g id="SvgjsG1008" featurekey="nameFeature-0" transform="matrix(2.0302693843841553,0,0,2.0302693843841553,136.26430438757743,-28.006636361722556)"
       fill="#000000">
        <path d="M1.84 33.519999999999996 l2.44 0 c0.76 3.56 2.6 4.88 6.2 4.88 c3.48 0 5.12 -1.84 5.12 -3.84 c0 -6 -13.28 -1.76 -13.28 -9.92 c0 -3.44 2.68 -5.92 7.28 -5.92 c4.48 0 7.4 1.84 8 6.52 l-2.44 0 c-0.44 -3.2 -2.6 -4.36 -5.6 -4.36 c-3.04 0 -4.68 1.44 -4.68 3.56 c0 5.64 13.28 2.12 13.28 10.08 c0 3.96 -3.56 6.04 -8.44 6.04 s-7.68 -3.12 -7.88 -7.04 z M25.56 29.72 c0 4.68 2.64 8.68 7 8.68 c4.96 0 7.28 -4.2 7.08 -9.4 c-0.04 -5.2 -3.04 -8.12 -7.08 -8.12 c-4.52 0 -7 3.84 -7 8.84 z M25.56 36.68 l0 11.48 l-2.4 0 l0 -28.88 l2.4 0 l0 3.64 l0.08 0 c1.4 -2.72 4.56 -4.2 7.2 -4.2 c6.68 0 9.36 4.76 9.36 10.88 c0 5.8 -2.92 10.96 -9.24 10.96 c-2.92 0 -5.88 -1.36 -7.4 -3.88 z M48.8 28.2 l13.52 0 c0 -4.04 -2.24 -7.32 -6.56 -7.32 c-4.24 0 -6.48 3.4 -6.96 7.32 z M64.88 30.2 l-16.08 0 c-0.04 4.48 2.36 8.2 6.96 8.2 c3.12 0 5.56 -1.72 6.28 -4.76 l2.68 0 c-1.2 3.92 -3.68 6.92 -8.96 6.92 c-6.64 0 -9.52 -4.72 -9.52 -10.84 c0 -6.04 3.6 -11 9.52 -11 c5.68 0 9.16 4.04 9.12 11.48 z M83.12 32.36 l0 -3.24 c-2.04 0.84 -4.12 1 -6.2 1.16 c-3.64 0.28 -5.84 1.6 -5.84 4.4 c0 2.52 2.2 3.72 4.48 3.72 c3.8 0 7.56 -1.84 7.56 -6.04 z M75.76 28.36 l3.32 -0.44 c0.88 -0.08 2.36 -0.32 3.16 -0.68 s0.88 -1.44 0.88 -2.16 c0 -2.44 -1.44 -4.2 -5.16 -4.2 c-3.32 0 -5.6 1.08 -6.04 4.68 l-2.44 0 c0.36 -4.88 4 -6.84 8.52 -6.84 c4.2 0 7.52 1.64 7.52 6.44 l0 11.28 c0 1.88 0.48 2.32 2.52 1.6 l0 1.88 c-0.36 0.12 -1.2 0.4 -1.88 0.4 c-0.4 0 -0.72 -0.04 -1.08 -0.12 c-1.6 -0.24 -1.88 -1.64 -1.92 -3.08 c-2 2.24 -4.72 3.44 -7.72 3.44 c-3.64 0 -6.92 -1.96 -6.92 -5.96 c0 -3.48 2.4 -5.6 7.24 -6.24 z M107.80000000000001 29.560000000000002 c0 -4.68 -2.64 -8.68 -7 -8.68 c-4.96 0 -7.28 4.2 -7.08 9.4 c0.04 5.2 3.04 8.12 7.08 8.12 c4.52 0 7 -3.84 7 -8.84 z M107.80000000000001 22.92 l0 -3.64 l2.4 0 l0 28.88 l-2.4 0 l0 -11.48 c-1.52 2.52 -4.48 3.88 -7.4 3.88 c-6.32 0 -9.24 -5.16 -9.24 -10.96 c0 -6.12 2.68 -10.88 9.36 -10.88 c2.64 0 5.8 1.48 7.2 4.2 l0.08 0 z"></path>
    </g>
</svg>
