<svg width="360"
     height="79.07066853841145"
     viewBox="0 0 120 79.07066853841145"
     class="css-1j8o68f">

    <defs id="SvgjsDefs1001">

    </defs>
    <g id="SvgjsG1007"
       featurekey="symbolFeature-0"
       transform="matrix(1.3333333730697632,0,0,1.3333333730697632,-6.666666666666666,-27.132001241048176)"
       fill="#ffffff">
        <path xmlns="http://www.w3.org/2000/svg"
              d="M7,46.5c-1.104,0-2,0.896-2,2v3c0,1.104,0.896,2,2,2s2-0.896,2-2v-3C9,47.396,8.104,46.5,7,46.5z">

        </path>
        <path xmlns="http://www.w3.org/2000/svg"
              d="M12.733,41.103c-1.104,0-2,0.896-2,2v13.795c0,1.104,0.896,2,2,2s2-0.896,2-2V43.103  C14.733,41.998,13.838,41.103,12.733,41.103z"></path>
        <path xmlns="http://www.w3.org/2000/svg"
              d="M18.467,44.167c-1.104,0-2,0.896-2,2v7.667c0,1.104,0.896,2,2,2s2-0.896,2-2v-7.667  C20.467,45.062,19.571,44.167,18.467,44.167z"></path>
        <path xmlns="http://www.w3.org/2000/svg"
              d="M24.2,35.875c-1.104,0-2,0.896-2,2v24.25c0,1.104,0.896,2,2,2s2-0.896,2-2v-24.25C26.2,36.771,25.305,35.875,24.2,35.875z"></path>
        <path xmlns="http://www.w3.org/2000/svg"
              d="M29.933,28.333c-1.104,0-2,0.896-2,2v39.333c0,1.104,0.896,2,2,2s2-0.896,2-2V30.333  C31.933,29.229,31.038,28.333,29.933,28.333z"></path>
        <path xmlns="http://www.w3.org/2000/svg"
              d="M35.667,36.833c-1.104,0-2,0.896-2,2v22.333c0,1.104,0.896,2,2,2s2-0.896,2-2V38.833  C37.667,37.729,36.771,36.833,35.667,36.833z"></path>
        <path xmlns="http://www.w3.org/2000/svg"
              d="M41.538,29.335c-1.073-0.038-2.006,0.882-2.013,1.987l-0.249,37.33c-0.007,1.104,0.882,2.006,1.987,2.013  c0.004,0,0.009,0,0.014,0c1.098,0,1.992-0.887,2-1.987l0.249-37.33C43.532,30.244,42.642,29.342,41.538,29.335z"></path>
        <path xmlns="http://www.w3.org/2000/svg"
              d="M47.133,20.349c-1.104,0-2,0.896-2,2v55.303c0,1.104,0.896,2,2,2s2-0.896,2-2V22.349  C49.133,21.244,48.238,20.349,47.133,20.349z"></path>
        <path xmlns="http://www.w3.org/2000/svg"
              d="M52.867,26.75c-1.104,0-2,0.896-2,2v42.5c0,1.104,0.896,2,2,2s2-0.896,2-2v-42.5C54.867,27.646,53.971,26.75,52.867,26.75z"></path>
        <path xmlns="http://www.w3.org/2000/svg"
              d="M58.6,36.833c-1.104,0-2,0.896-2,2v22.333c0,1.104,0.896,2,2,2s2-0.896,2-2V38.833C60.6,37.729,59.705,36.833,58.6,36.833z"></path>
        <path xmlns="http://www.w3.org/2000/svg"
              d="M64.333,30.5c-1.104,0-2,0.896-2,2v35c0,1.104,0.896,2,2,2s2-0.896,2-2v-35C66.333,31.396,65.438,30.5,64.333,30.5z"></path>
        <path xmlns="http://www.w3.org/2000/svg"
              d="M70.067,39.132c-1.104,0-2,0.896-2,2v17.735c0,1.104,0.896,2,2,2s2-0.896,2-2V41.132  C72.067,40.028,71.171,39.132,70.067,39.132z"></path>
        <path xmlns="http://www.w3.org/2000/svg"
              d="M75.8,43c-1.104,0-2,0.896-2,2v10c0,1.104,0.896,2,2,2s2-0.896,2-2V45C77.8,43.896,76.904,43,75.8,43z"></path>
        <path xmlns="http://www.w3.org/2000/svg"
              d="M81.533,41.235c-1.104,0-2,0.896-2,2v13.53c0,1.104,0.896,2,2,2s2-0.896,2-2v-13.53  C83.533,42.13,82.638,41.235,81.533,41.235z"></path>
        <path xmlns="http://www.w3.org/2000/svg"
              d="M87.267,45.49c-1.104,0-2,0.896-2,2v5.021c0,1.104,0.896,2,2,2s2-0.896,2-2V47.49C89.267,46.385,88.371,45.49,87.267,45.49z  "></path>
        <path xmlns="http://www.w3.org/2000/svg"
              d="M93,46.917c-1.104,0-2,0.896-2,2v2.167c0,1.104,0.896,2,2,2s2-0.896,2-2v-2.167C95,47.812,94.104,46.917,93,46.917z"></path>
    </g>
</svg>